<svg width="440" height="285" viewBox="0 0 440 285" fill="none" xmlns="http://www.w3.org/2000/svg">
<path d="M211.511 172.365L208.838 173.341C200.693 176.31 192.126 177.954 183.461 178.211H177.308C161.529 178.066 146.073 173.723 132.526 165.628C119.049 157.659 107.805 146.409 99.8379 132.925C91.7491 119.374 87.4142 103.911 87.2791 88.1275C87.3979 72.3999 91.7323 56.9924 99.8302 43.5127C107.815 30.1607 119.143 19.1244 132.695 11.4938C146.246 3.86329 161.553 -0.0974381 177.102 0.00286649C192.704 -0.12391 208.052 3.95665 221.534 11.8158C234.841 19.5157 245.895 30.5771 253.589 43.8937C261.418 57.3257 265.495 72.6163 265.394 88.1656V88.2952C266.209 105.143 261.965 121.85 253.208 136.263C244.738 150.608 232.309 162.2 217.413 169.645L214.809 170.948L257.016 276.961L253.589 278.599L211.511 172.365ZM177.102 3.56961C162.186 3.54134 147.516 7.37888 134.522 14.7085C121.528 22.0382 110.652 32.6102 102.953 45.3951C95.1828 58.2833 91.014 73.0229 90.8815 88.0742V88.1733C91.0455 103.327 95.207 118.168 102.945 131.195C110.542 144.141 121.323 154.927 134.262 162.526C147.283 170.262 162.112 174.426 177.254 174.598H183.233C197.693 174.157 211.74 169.668 223.78 161.642C235.83 153.742 245.653 142.881 252.31 130.098C259.08 117.293 262.346 102.923 261.776 88.4476V88.1275C261.876 73.2389 257.905 58.6065 250.291 45.8143C242.816 33.1245 232.242 22.543 219.561 15.0625C206.719 7.43227 192.037 3.45823 177.102 3.56961ZM345.986 284.931C335.959 285.091 326.263 281.341 318.949 274.475C311.478 267.87 306.728 258.721 305.621 248.807L305.302 246.124H281.212V242.519H309.247V244.12C309.247 254.492 312.872 263.378 320.031 270.527C323.398 273.996 327.436 276.743 331.898 278.599C336.361 280.456 341.154 281.384 345.986 281.327H351.028C355.869 281.394 360.673 280.474 365.147 278.622C369.622 276.771 373.672 274.027 377.052 270.558C384.203 263.401 387.828 254.515 387.828 244.15V242.71L416.769 240.591C419.338 240.44 421.852 239.777 424.162 238.643C426.473 237.508 428.535 235.924 430.226 233.983C433.885 230.092 436.028 225.016 436.266 219.678C436.525 214.717 435.999 207.278 434.689 197.576V197.439C433.12 188.82 431.529 181.671 429.967 176.199C426.022 162.976 419.564 155.096 410.768 152.748C403.644 150.912 396.426 149.464 389.146 148.412C383.959 147.413 376.648 144.754 367.417 140.516C361.698 137.894 352.49 133.215 340.046 126.615C321.44 116.791 308.15 110.343 300.542 107.44L297.328 106.236H297.236C295.195 105.62 293.123 105.111 291.029 104.711L291.745 101.129C293.984 101.648 296.147 102.181 298.188 102.722L301.517 103.835C309.437 106.883 323.009 113.514 341.881 123.467C353.732 129.915 362.543 134.381 368.034 136.744C377.714 141.316 384.789 143.923 389.74 144.723C397.356 146.057 404.85 147.619 412.009 149.357C422.054 151.917 429.084 160.369 433.463 175.2C435.23 180.772 436.753 188.157 438.033 197.241C439.556 207.095 440.188 214.846 439.952 220.318C439.559 226.46 436.966 232.253 432.648 236.635C428.223 241.3 423.159 243.792 417.165 244.257L391.332 245.994L391.095 248.578C390.151 258.543 385.528 267.798 378.128 274.534C370.728 281.269 361.084 285.001 351.081 285L345.986 284.931ZM88.8708 284.931C78.9303 284.926 69.3433 281.241 61.9556 274.586C54.568 267.93 49.9021 258.775 48.8566 248.883L48.5976 246.124H18.6668C13.7259 246.092 8.99641 244.114 5.50261 240.617C2.00882 237.121 0.031942 232.389 0 227.444V223.954C0 216.546 0.190392 210.998 0.563575 207.37C0.932122 203.841 1.60494 200.35 2.5743 196.936C4.47067 191.54 8.60608 185.992 14.8816 180.429C22.5915 173.585 31.6076 168.377 41.3853 165.118C48.887 162.618 59.9682 160.042 74.2862 157.496L85.954 155.66L86.5404 159.341L74.7204 161.2C60.6994 163.868 50.1892 166.306 42.5885 168.661C33.6706 171.497 25.392 176.049 18.2173 182.06C11.7666 187.394 7.76823 192.729 6.03179 198.224C4.93129 201.521 4.23819 204.941 3.96789 208.406C3.69372 211.691 3.56422 216.79 3.56422 223.977V227.467C3.54902 229.451 3.92836 231.418 4.68003 233.254C5.4317 235.09 6.54077 236.758 7.94266 238.161C9.34456 239.563 11.0113 240.673 12.8458 241.425C14.6804 242.178 16.6461 242.557 18.6286 242.542H52.04V244.142C52.04 254.507 55.6727 263.394 62.8165 270.55C66.2533 274.049 70.3662 276.811 74.9045 278.668C79.4428 280.525 84.3115 281.437 89.2136 281.349H93.8974C98.7657 281.402 103.595 280.474 108.097 278.62C112.599 276.766 116.683 274.024 120.104 270.558C123.658 267.148 126.469 263.04 128.36 258.492C130.251 253.944 131.182 249.053 131.094 244.127V242.527H207.254V246.132H134.689L134.369 248.814C133.245 258.734 128.479 267.882 120.995 274.483C113.679 281.345 103.985 285.094 93.9584 284.939L88.8708 284.931ZM137.034 129.145L145.526 121.874C156.615 112.295 165.061 106.335 170.659 104.155L170.796 104.094C180.742 99.628 200.422 97.2349 229.302 96.9834H236.316V100.604H229.279C200.696 100.863 182.06 103.103 172.25 107.463C166.691 109.703 158.686 115.328 147.803 124.656L139.555 131.973L137.034 129.145Z" fill="#4A4A4A"/>
</svg>
