<svg width="17" height="16" viewBox="0 0 17 16" fill="none" xmlns="http://www.w3.org/2000/svg">
<path d="M10.1199 12.5467C9.99325 12.5467 9.86658 12.5 9.76658 12.4C9.57325 12.2067 9.57325 11.8867 9.76658 11.6933L13.4599 7.99999L9.76658 4.30665C9.57325 4.11332 9.57325 3.79332 9.76658 3.59999C9.95992 3.40665 10.2799 3.40665 10.4732 3.59999L14.5199 7.64665C14.7132 7.83999 14.7132 8.15999 14.5199 8.35332L10.4732 12.4C10.3732 12.5 10.2466 12.5467 10.1199 12.5467Z" fill="#EA5D1B"/>
<path d="M14.0535 8.5H2.8335C2.56016 8.5 2.3335 8.27333 2.3335 8C2.3335 7.72667 2.56016 7.5 2.8335 7.5H14.0535C14.3268 7.5 14.5535 7.72667 14.5535 8C14.5535 8.27333 14.3268 8.5 14.0535 8.5Z" fill="#EA5D1B"/>
</svg>
