<svg width="17" height="16" viewBox="0 0 17 16" fill="none" xmlns="http://www.w3.org/2000/svg">
<path d="M10.1194 12.5467C9.99276 12.5467 9.86609 12.5 9.76609 12.4C9.57276 12.2067 9.57276 11.8867 9.76609 11.6933L13.4594 7.99999L9.76609 4.30665C9.57276 4.11332 9.57276 3.79332 9.76609 3.59999C9.95943 3.40665 10.2794 3.40665 10.4728 3.59999L14.5194 7.64665C14.7128 7.83999 14.7128 8.15999 14.5194 8.35332L10.4728 12.4C10.3728 12.5 10.2461 12.5467 10.1194 12.5467Z" fill="#003C4A"/>
<path d="M14.054 8.5H2.83398C2.56065 8.5 2.33398 8.27333 2.33398 8C2.33398 7.72667 2.56065 7.5 2.83398 7.5H14.054C14.3273 7.5 14.554 7.72667 14.554 8C14.554 8.27333 14.3273 8.5 14.054 8.5Z" fill="#003C4A"/>
</svg>
