<svg width="20" height="20" viewBox="0 0 20 20" fill="none" xmlns="http://www.w3.org/2000/svg">
<path d="M12.0248 15.6833C11.8664 15.6833 11.7081 15.625 11.5831 15.5C11.3414 15.2583 11.3414 14.8583 11.5831 14.6167L16.1998 10L11.5831 5.38334C11.3414 5.14167 11.3414 4.74167 11.5831 4.50001C11.8248 4.25834 12.2248 4.25834 12.4664 4.50001L17.5248 9.55834C17.7664 9.80001 17.7664 10.2 17.5248 10.4417L12.4664 15.5C12.3414 15.625 12.1831 15.6833 12.0248 15.6833Z" fill="#666666"/>
<path d="M16.9415 10.625H2.9165C2.57484 10.625 2.2915 10.3417 2.2915 10C2.2915 9.65833 2.57484 9.375 2.9165 9.375H16.9415C17.2832 9.375 17.5665 9.65833 17.5665 10C17.5665 10.3417 17.2832 10.625 16.9415 10.625Z" fill="#666666"/>
</svg>
