<svg width="16" height="16" viewBox="0 0 16 16" fill="none" xmlns="http://www.w3.org/2000/svg">
<path d="M8.00008 14.1666C7.87341 14.1666 7.74675 14.12 7.64675 14.02L3.60008 9.97331C3.40674 9.77998 3.40674 9.45998 3.60008 9.26664C3.79341 9.07331 4.11341 9.07331 4.30674 9.26664L8.00008 12.96L11.6934 9.26664C11.8867 9.07331 12.2067 9.07331 12.4001 9.26664C12.5934 9.45998 12.5934 9.77998 12.4001 9.97331L8.35341 14.02C8.25341 14.12 8.12675 14.1666 8.00008 14.1666Z" fill="#999999"/>
<path d="M8 14.0533C7.72667 14.0533 7.5 13.8266 7.5 13.5533V2.33331C7.5 2.05998 7.72667 1.83331 8 1.83331C8.27333 1.83331 8.5 2.05998 8.5 2.33331V13.5533C8.5 13.8266 8.27333 14.0533 8 14.0533Z" fill="#999999"/>
</svg>
