<svg xmlns="http://www.w3.org/2000/svg" width="193" height="40" viewBox="0 0 193 40" fill="none"><script xmlns=""/>
<path fill-rule="evenodd" clip-rule="evenodd" d="M39.6627 6C37.5821 9.34623 35.4957 12.6888 33.404 16.0274L30.4211 14.8565L32.2246 11.767L26.4328 14.6731L29.9598 16.0556C30.6862 16.3378 31.5507 16.7017 31.8684 17.5792C32.186 18.4567 31.7137 19.2721 31.2911 19.9633L29.3577 23.0443C27.0727 26.699 24.7858 30.351 22.497 34V30.6143C23.3736 27.7928 24.226 24.9714 25.0546 22.1499C25.2885 21.345 25.5205 20.5397 25.7506 19.7348C25.8887 19.2495 25.8003 18.9589 25.3418 18.7275L21.823 16.9585L18.3181 18.7247C17.8596 18.9561 17.7657 19.2467 17.9093 19.732C18.1377 20.5389 18.3697 21.3441 18.6053 22.1471C19.4303 24.9798 20.2827 27.8013 21.1629 30.6114V33.9972C18.8705 30.3482 16.5836 26.6961 14.3022 23.0415L12.3688 19.9605C11.9434 19.2805 11.4656 18.4764 11.7915 17.5764C12.1175 16.6763 12.9737 16.3378 13.7001 16.0528L17.2271 14.6703L11.4408 11.767L13.2443 14.8678L10.2614 16.0387C8.17169 12.6961 6.08446 9.3499 4 6C5.01064 6.3659 6.02127 6.73237 7.03199 7.09887C11.96 8.88585 16.89 10.6735 21.8313 12.399C26.9192 10.6248 31.983 8.78693 37.0484 6.94847C37.9197 6.63222 38.7911 6.31596 39.6627 6ZM58.7177 26.5714H79.2414V23.1306H59.4061C59.071 23.1306 58.8 22.8784 58.8 22.5681V18.0034C58.8 17.693 59.071 17.4408 59.4061 17.4408H79.2414V14H58.7177C56.8111 14 55.2651 15.4343 55.2651 17.2032V23.3683C55.2651 25.1372 56.8111 26.5714 58.7177 26.5714ZM106.415 23.3683V14H102.297V22.5681C102.297 22.8784 102.024 23.1306 101.689 23.1306H87.164C86.8305 23.1306 86.5586 22.8784 86.5586 22.5681V14H82.4383V23.3683C82.4383 25.1372 83.9813 26.5714 85.8868 26.5714H102.967C104.872 26.5714 106.415 25.1372 106.415 23.3683ZM185.27 17.2795V20.0124C179.595 19.9978 168.753 19.9741 168.753 20.0102V17.8022C168.753 17.5138 169.029 17.2795 169.371 17.2795H185.27ZM185.13 26.5714H189V14C188.998 14.0133 188.978 14.0242 188.94 14H168.468C166.565 14 165.024 15.4343 165.024 17.2032L165.059 26.5714H168.929V22.7402H185.13V26.5714ZM129.789 20.0124H113.874V17.2795H129.789C130.119 17.2795 130.391 17.5131 130.391 17.8007V19.489C130.391 19.7788 130.119 20.0124 129.789 20.0124ZM134.121 16.9364C134.121 15.1675 133.207 14 130.676 14H110.144V26.5714H114.017V22.7402H130.676C133.346 22.7402 134.121 21.306 134.121 19.5371V16.9364ZM141.58 19.4658V16.7329H157.486C157.824 16.7329 158.097 16.9665 158.097 17.2539V18.9426C158.097 19.2312 157.824 19.4658 157.486 19.4658H141.58ZM137.85 14L137.864 26.5629L141.892 26.5714V22.7414H155.47L157.847 26.5714H162.36L159.601 22.5814C160.832 22.5814 162.051 21.3508 162.051 19.5371V16.9377C162.051 15.1675 160.49 14 158.566 14H137.85Z" fill="white"/>
<script xmlns=""/></svg>