<svg width="42" height="33" viewBox="0 0 42 33" fill="none" xmlns="http://www.w3.org/2000/svg">
    <path d="M19.7794 11.2345C19.7794 14.2577 18.8638 16.5374 17.5921 18.3216C17.4394 18.5694 17.2868 18.9163 17.2868 19.3128C17.2868 19.7092 17.3886 20.0562 17.5921 20.304C17.9481 20.75 18.1516 21.3943 18.1516 22.1872C18.1516 23.5253 17.1851 24.5661 16.3203 24.6156" stroke="white" stroke-width="0.75" stroke-miterlimit="1" stroke-linecap="round" stroke-linejoin="round"/>
    <path d="M22.1704 11.2345C22.1704 14.2577 23.086 16.5374 24.3578 18.3216C24.5104 18.5694 24.663 18.9163 24.663 19.3128C24.663 19.7092 24.5612 20.0562 24.3578 20.304C24.0017 20.75 23.7982 21.3943 23.7982 22.1872C23.7982 23.5253 24.7647 24.5661 25.6295 24.6156" stroke="white" stroke-width="0.75" stroke-miterlimit="1" stroke-linecap="round" stroke-linejoin="round"/>
    <path d="M22.2212 3.3545V1.96683L21.0003 1.27299L19.7286 1.96683V3.3545L21.0003 4.04834L22.2212 3.3545Z" stroke="white" stroke-width="0.75" stroke-miterlimit="1" stroke-linecap="round" stroke-linejoin="round"/>
    <path d="M21.0001 4.84134V4.14751" stroke="white" stroke-width="0.75" stroke-miterlimit="1" stroke-linecap="round" stroke-linejoin="round"/>
    <path d="M8.13002 26.152C8.13002 25.5573 12.9118 24.467 20.9491 24.467C28.9865 24.467 33.7682 25.6068 33.7682 26.152M33.8191 26.152C33.8191 24.3183 35.4978 21.0969 39.5674 17.3304C43.6369 13.5638 38.2956 7.12108 32.8017 10.5903C32.8017 10.5903 32.0387 9.30171 29.3935 9.30171C27.0535 9.30171 25.0187 10.8876 22.17 11.2841V10.5903C23.1365 10.0947 23.8487 9.05391 23.8487 7.86448C23.8487 6.32813 22.933 4.8909 21 4.8909C19.067 4.8909 18.1513 6.32813 18.1513 7.86448C18.1513 9.05391 18.8126 10.0947 19.83 10.5903V11.2841C16.9813 10.8876 14.9465 9.30171 12.6065 9.30171C9.96132 9.30171 9.19828 10.5903 9.19828 10.5903C3.70438 7.12108 -1.63692 13.5638 2.43264 17.3304C6.5022 21.0969 8.18089 24.3183 8.18089 26.152H33.8191Z" stroke="white" stroke-width="0.75" stroke-miterlimit="1" stroke-linecap="round" stroke-linejoin="round"/>
    <path d="M8.13034 26.152V29.6212C8.13034 31.3558 15.8625 32 20.9494 32C26.0364 32 33.7685 31.3558 33.7685 29.6212V26.152M8.13034 29.6707C8.13034 29.0265 13.0138 27.837 20.9494 27.837C28.8851 27.837 33.7685 29.0265 33.7685 29.6707H8.13034Z" stroke="white" stroke-width="0.75" stroke-miterlimit="1" stroke-linecap="round" stroke-linejoin="round"/>
    <path d="M9.14762 10.6398C8.02849 12.1266 8.53718 14.0594 10.165 15.5462C14.2346 19.3127 15.9133 22.5341 15.9133 24.3678" stroke="white" stroke-width="0.75" stroke-miterlimit="1" stroke-linecap="round" stroke-linejoin="round"/>
    <path d="M32.8018 10.6398C33.921 12.1266 33.4123 14.0594 31.7845 15.5462C27.7149 19.3127 26.0362 22.5341 26.0362 24.3678" stroke="white" stroke-width="0.75" stroke-miterlimit="1" stroke-linecap="round" stroke-linejoin="round"/>
</svg>