<svg width="48" height="48" viewBox="0 0 48 48" fill="none" xmlns="http://www.w3.org/2000/svg">
<g id="Icons/Actions/phone">
<path id="Combined Shape" fill-rule="evenodd" clip-rule="evenodd" d="M25.1374 23.8521L29.671 15.4779L28.7903 14.6414L28.4059 14.2573C28.0076 13.8512 27.6104 13.4229 27.2437 12.9952C26.9758 12.6827 26.735 12.3827 26.5283 12.1016C26.1669 11.6103 25.9282 11.1991 25.8428 10.9366C25.5386 10.0011 28.5921 5.33481 29.5619 5.36868C32.2635 5.46302 37.2353 8.79984 37.5921 11.9975L37.602 12.1744C37.6077 13.347 36.5151 15.6876 32.9013 22.3299L29.8039 27.9892C29.4426 28.6011 29.0978 29.1851 28.7688 29.7424C23.012 39.4932 22.0667 41.0945 21.3735 41.5707L21.2121 41.6658L20.374 42.0146C17.3914 43.0556 12.2889 40.6094 10.8674 38.4204C10.3389 37.6066 12.766 32.5859 13.7245 32.3649C13.9936 32.3029 14.4689 32.2957 15.0762 32.3524C15.4237 32.3848 15.8048 32.4368 16.2106 32.5054C16.7662 32.5994 17.3378 32.7194 17.891 32.8516L18.4183 32.9832L19.5889 33.3073L24.4321 25.1081L24.4517 25.1187L24.7358 24.594L25.1645 23.8681L25.1374 23.8521ZM22.415 23.2809L26.3656 15.9836C25.9745 15.5799 25.5861 15.1577 25.2196 14.7303C24.9111 14.3704 24.6296 14.0198 24.3806 13.6812C23.8651 12.9803 23.4989 12.3494 23.3075 11.7611C22.9765 10.7432 23.4235 9.12973 24.2648 7.54467C25.0743 5.68841 26.5273 3.88484 27.9598 3.24952C28.5441 2.88894 29.1223 2.6857 29.6549 2.7043C33.5418 2.84004 39.7151 6.98327 40.2416 11.7018C40.4156 13.2607 39.9751 14.7047 37.4596 19.4904L36.2965 21.6705L32.2238 29.1199L32.2301 29.1237L32.0994 29.3474L31.8946 29.7221L31.1139 31.1227L31.0751 31.1011L27.9991 36.3677L27.0872 37.8838L26.5384 38.7705C24.5307 41.9718 23.1417 43.6961 21.7964 44.313C17.4807 46.2919 10.7497 43.1342 8.6315 39.8724C7.04279 37.426 10.4466 30.3848 13.1255 29.7671C13.7283 29.6281 14.4577 29.617 15.3241 29.6979C15.7425 29.737 16.188 29.7977 16.6554 29.8768C17.2106 29.9707 17.7725 30.0863 18.3199 30.2136L22.415 23.2809Z" fill="#001E50"/>
</g>
</svg>
