<svg width="29" height="29" viewBox="0 0 29 29" fill="none" xmlns="http://www.w3.org/2000/svg">
    <g clip-path="url(#clip0_755_18287)">
        <path d="M24.5573 10.3583C23.3323 4.96829 18.6306 2.54163 14.5006 2.54163C14.5006 2.54163 14.5006 2.54163 14.4889 2.54163C10.3706 2.54163 5.65727 4.95663 4.43227 10.3466C3.06727 16.3666 6.75393 21.465 10.0906 24.6733C11.3273 25.8633 12.9139 26.4583 14.5006 26.4583C16.0873 26.4583 17.6739 25.8633 18.8989 24.6733C22.2356 21.465 25.9223 16.3783 24.5573 10.3583ZM14.5006 16.2033C12.4706 16.2033 10.8256 14.5583 10.8256 12.5283C10.8256 10.4983 12.4706 8.85329 14.5006 8.85329C16.5306 8.85329 18.1756 10.4983 18.1756 12.5283C18.1756 14.5583 16.5306 16.2033 14.5006 16.2033Z" fill="#011E50"/>
    </g>
    <defs>
        <clipPath id="clip0_755_18287">
            <rect width="28" height="28" fill="white" transform="translate(0.5 0.5)"/>
        </clipPath>
    </defs>
</svg>
