<svg width="28" height="28" viewBox="0 0 28 28" fill="none" xmlns="http://www.w3.org/2000/svg">
<path d="M24.0567 9.85829C22.8317 4.46829 18.13 2.04163 14 2.04163C14 2.04163 14 2.04163 13.9883 2.04163C9.86999 2.04163 5.15666 4.45663 3.93166 9.84663C2.56666 15.8666 6.25332 20.965 9.58999 24.1733C10.8267 25.3633 12.4133 25.9583 14 25.9583C15.5867 25.9583 17.1733 25.3633 18.3983 24.1733C21.735 20.965 25.4217 15.8783 24.0567 9.85829ZM14 15.7033C11.97 15.7033 10.325 14.0583 10.325 12.0283C10.325 9.99829 11.97 8.35329 14 8.35329C16.03 8.35329 17.675 9.99829 17.675 12.0283C17.675 14.0583 16.03 15.7033 14 15.7033Z" fill="#EA5D1B"/>
</svg>
