<svg width="29" height="28" viewBox="0 0 29 28" fill="none" xmlns="http://www.w3.org/2000/svg">
    <g clip-path="url(#clip0_727_45954)">
        <path d="M24.5573 9.85829C23.3323 4.46829 18.6306 2.04163 14.5006 2.04163C14.5006 2.04163 14.5006 2.04163 14.4889 2.04163C10.3706 2.04163 5.65727 4.45663 4.43227 9.84663C3.06727 15.8666 6.75393 20.965 10.0906 24.1733C11.3273 25.3633 12.9139 25.9583 14.5006 25.9583C16.0873 25.9583 17.6739 25.3633 18.8989 24.1733C22.2356 20.965 25.9223 15.8783 24.5573 9.85829ZM14.5006 15.7033C12.4706 15.7033 10.8256 14.0583 10.8256 12.0283C10.8256 9.99829 12.4706 8.35329 14.5006 8.35329C16.5306 8.35329 18.1756 9.99829 18.1756 12.0283C18.1756 14.0583 16.5306 15.7033 14.5006 15.7033Z" fill="#003C4A"/>
    </g>
    <defs>
        <clipPath id="clip0_727_45954">
            <rect width="28" height="28" fill="white" transform="translate(0.5)"/>
        </clipPath>
    </defs>
</svg>
