<svg version="1.2" xmlns="http://www.w3.org/2000/svg" viewBox="0 0 4096 923" width="4096" height="923">
	<title>seat-official-svg</title>
	<style>
		.s0 { fill: #ffffff } 
	</style>
	<path id="Layer" class="s0" d="m0 388c14 2.3 28 4.7 42 7.3q2.5 0.5 5 0.9 6.7 1.3 13.4 2.6 7.3 1.3 14.6 2.7 12.5 2.3 25 4.7 18.3 3.4 36.6 6.8 8.5 1.6 17 3.2 1.7 0.3 3.5 0.6 12.1 2.3 24.2 4.6 1.8 0.3 3.5 0.6 1.7 0.4 3.5 0.7 58.3 10.9 116.7 21.8 9.8 1.8 19.5 3.7 63.4 11.8 126.8 23.6 1.5 0.3 3 0.6 25.6 4.8 51.2 9.5 70.5 13.2 140.9 26.3 1.5 0.3 3.1 0.6 29.4 5.5 58.8 11 18.4 3.4 36.8 6.9 1.5 0.3 3 0.5 48.6 9.1 97.3 18.2 6.6 1.2 13.3 2.5 8.3 1.5 16.5 3.1 1.6 0.3 3.3 0.6 17.4 3.2 34.8 6.5 17.4 3.2 34.9 6.4 1.3 0.3 2.7 0.6c28 5.2 56.1 10.5 84.1 15.9 0.2 14.9-0.3 29.8-0.8 44.6q-0.1 5.6-0.3 11.3-0.3 9.4-0.6 18.8-0.3 10.8-0.6 21.6-0.3 10.5-0.6 21.1-0.1 4.4-0.3 8.8c-0.4 14.1-0.8 28.2-1.3 42.3-0.1 1.6-0.1 1.6-0.1 3.2-0.3 7.8-0.8 15.6-1.6 23.4q-0.2 1.8-0.4 3.7c-4 35.6-13.3 71.6-41.4 95.8-36.4 28.8-82.3 34.5-127.2 37.9q-1.3 0.1-2.5 0.2c-17.5 1.3-35 2.3-52.5 3.2q-3.7 0.2-7.4 0.4c-27.4 1.3-54.7 2.4-82.1 3.4-1.3 0-1.3 0-2.6 0.1q-1.3 0-2.6 0.1-1.1 0-2.2 0.1c-39.6 1.3-79.3 2.2-118.9 2.2q-4.7 0-9.3 0-16.3 0-32.7 0-13.2 0-26.4 0c-55.3 0.1-110.4-0.3-165.6-2.1q-2.9-0.1-5.7-0.2-21.3-0.7-42.5-1.6-4.6-0.2-9.1-0.4c-61.5-2.5-122.9-5.8-184.2-9.8q-4.4-0.3-8.8-0.6c-67.9-4.4-67.9-4.4-81.7-16.5q-0.9-0.7-1.7-1.5c-13.4-13.4-11.4-42.3-12.7-59.8q-0.1-1.2-0.2-2.5c-1.8-24.6-3-49.1-4.3-73.7q-0.5-9.4-1-18.9-1.1-19.8-2.1-39.6-0.1-1.4-0.2-2.9-0.2-4.1-0.4-8.3 0-1.2-0.1-2.4-0.5-8.8-0.4-17.6 0-1.3 0.1-2.7 0-3 0-6.1c9.2-0.2 18.3 0.3 27.5 0.8q4 0.2 8 0.5 5.8 0.3 11.6 0.6c75.4 4.2 150.8 7.3 226.3 9.4q1.5 0 3.1 0.1 33.9 0.9 67.8 1.6 1.6 0 3.1 0.1c51.6 1 103.2 1.5 154.8 1.9q13 0.1 25.9 0.3 43.8 0.4 87.7 0.6 8.9 0.1 17.9 0.2 12.9 0.1 25.8 0.1 5.6 0 11.2 0.1c27.7 0.2 54.1-1.4 75.8-20.7 2.5-2.7 4.5-5.6 6.5-8.6q-1-0.1-2-0.1c-9.2-0.7-18.2-2.2-27.2-3.7q-2.6-0.5-5.2-0.9-7.1-1.3-14.1-2.5-7.7-1.3-15.3-2.6-13.2-2.3-26.4-4.6-21.1-3.7-42.3-7.3-3.6-0.6-7.2-1.3-5.5-0.9-11-1.9-11.1-1.9-22.2-3.8-51-8.8-101.9-17.5-1.7-0.3-3.3-0.6-19.6-3.4-39.2-6.7-29.4-5.1-58.8-10.1-4.9-0.8-9.7-1.7-48.3-8.2-96.6-16.5c-1.5-0.3-1.5-0.3-3.1-0.6q-33.8-5.8-67.6-11.6-11.6-2-23.2-4-4.2-0.7-8.5-1.4-35.7-6.2-71.3-12.3-8.3-1.4-16.6-2.8-1.1-0.2-2.3-0.4-4.5-0.8-8.9-1.5-12.7-2.2-25.3-4.4-8.4-1.4-16.9-2.9-3.4-0.5-6.8-1.1-4.6-0.8-9.2-1.6-1.3-0.2-2.7-0.4c-6-1.1-6-1.1-8.2-2.2 0-41.6 0-83.2 0-126z"/>
	<path id="Layer" class="s0" d="m494.6-0.3q11.4 0.1 22.8 0c53.9 0 107.8 0.4 161.6 2.2q5.6 0.2 11.2 0.3 19.5 0.7 39 1.4 4.6 0.2 9.2 0.4c64.8 2.6 129.5 6.2 194.2 10.5q3.4 0.3 6.8 0.5c62.1 4.1 62.1 4.1 76 18 12.1 15 10.7 40.4 12 58.7q0.1 1.3 0.1 2.6c2 27.2 3.4 54.3 4.8 81.5q0.5 8.8 1 17.7 0.6 10.7 1.2 21.4 0.1 3.1 0.3 6.2 0.3 5.6 0.6 11.2 0.1 1.7 0.2 3.4 0.1 1.5 0.2 3.1c0 1.3 0 1.3 0.1 2.7q0.1 3.8 0.1 7.5c-9.1 0.1-18.2-0.1-27.3-0.6q-3-0.1-5.9-0.3-3.1-0.1-6.2-0.3-6.5-0.3-13.1-0.6-8.3-0.4-16.5-0.8-26-1.3-52.1-2.6c-1.2 0-1.2 0-2.5-0.1-61.1-3-122.2-5.5-183.4-7.3q-4.6-0.1-9.3-0.3c-61.3-1.8-122.6-2.3-183.9-2.2q-9.9 0-19.8 0c-36.2-0.1-72.5-0.1-108.7 0.6q-1.7 0-3.5 0c-66.4-2.8-66.4-2.8-123.8 24.5q-0.5 1-1 2 120.6 22.5 241.2 44.8c1.6 0.3 1.6 0.3 3.2 0.6q6.4 1.2 12.8 2.4 16.1 2.9 32.3 5.9 3.2 0.6 6.5 1.2 50.2 9.3 100.3 18.6c1.6 0.3 1.6 0.3 3.2 0.6q30.3 5.6 60.6 11.2 19 3.6 38 7.1 1.6 0.3 3.2 0.6 49.3 9.1 98.6 18.2 10.6 2 21.3 4 6.9 1.2 13.9 2.5 1.7 0.3 3.4 0.7 20.2 3.7 40.4 7.4 12.5 2.3 24.9 4.6 8.6 1.6 17.2 3.2 5.2 1 10.4 1.9 2.4 0.5 4.8 0.9 3.3 0.6 6.5 1.2 1.8 0.3 3.6 0.7c4.3 0.8 8.5 1.8 12.7 2.7 0 37 0 73.9 0 112-43.2-7-43.2-7-63.6-10.5q-2.4-0.4-4.7-0.8c-1.2-0.2-1.2-0.2-2.4-0.5q-6.4-1.1-12.9-2.2-12.6-2.2-25.3-4.3-15.2-2.7-30.4-5.3-36.7-6.3-73.3-12.6-17.3-3-34.6-6-81.6-14-163.1-28.1-51.5-8.9-102.9-17.7-1.8-0.3-3.6-0.7-16.3-2.8-32.6-5.6-25.1-4.3-50.3-8.7-1.8-0.3-3.6-0.6-9-1.5-18-3.1-16.3-2.8-32.6-5.6-9.1-1.6-18.2-3.1-3.7-0.7-7.4-1.3-69-11.9-137.9-23.8c-1.7-0.3-1.7-0.3-3.5-0.6q-3.5-0.6-6.9-1.2-8.6-1.5-17.1-2.9-15-2.6-30-5.2-8.3-1.4-16.5-2.8-1.7-0.3-3.3-0.6-23.2-4-46.4-8-1.1-0.2-2.1-0.4-1-0.1-2.1-0.3-7.2-1.2-14.4-2.5c-1-0.2-1-0.2-2-0.3q-5-0.9-10.1-1.8-11.8-2-23.5-4-7.3-1.3-14.5-2.5-3.4-0.6-6.8-1.2-4.6-0.8-9.3-1.5-1.3-0.3-2.7-0.5c-6.2-1.1-6.2-1.1-8.4-2.2q0.9-49.8 2.5-99.6 0.3-11.1 0.7-22.3 0.3-9.1 0.5-18.1 0.2-3.8 0.3-7.5c1.4-48 4.3-102.1 41-137.5 32.9-28.7 76.1-35.7 118.3-39.5q1-0.1 2.1-0.2c15.6-1.4 31.2-2.3 46.8-3.2q3.4-0.2 6.9-0.4 21.6-1.1 43.2-2.1c1-0.1 1-0.1 2-0.1q21.5-1 43.1-1.8c1.2 0 1.2 0 2.4-0.1 61.3-2.2 122.5-2.9 183.8-2.9z"/>
	<path id="Layer" class="s0" d="m2129 276c189.1 0 378.2 0 573 0 0 24.1 0 48.2 0 73-156.8 0-313.5 0-475 0 0 23.4 0 46.9 0 71 150.5 0 301 0 456 0 0 23.8 0 47.5 0 72-150.5 0-301 0-456 0 0.6 38.3 0.6 38.3 19 70 11.3 7.3 24.2 10.1 37.5 10.1q1.1 0 2.2 0 3.7 0.1 7.4 0.1 2.6 0 5.3 0 7.2 0 14.5 0 7.9 0 15.7 0 13.6 0.1 27.2 0.1 19.7 0 39.4 0.1 31.9 0 63.8 0.1 31 0.1 62 0.1 1.9 0 3.8 0 9.6 0.1 19.2 0.1 79.5 0.1 159 0.3c0 24.4 0 48.8 0 74q-82.2 0-164.4 0.1-9.7 0-19.4 0-1.9 0-3.9 0-31.3 0-62.5 0-32.1 0-64.2 0-19.8 0-39.6 0-13.6 0-27.2 0-7.8 0-15.7 0c-85.4 0.1-85.4 0.1-119.1-17.1q-0.9-0.5-1.9-0.9c-8.4-4.4-15.4-9.4-22.1-16.1q-1.3-1.2-2.6-2.5-1.2-1.2-2.4-2.5-0.9-0.9-1.8-1.8c-11.7-12.4-18.7-28.7-22.9-45-0.3-1.1-0.3-1.1-0.7-2.3-22.2-91.7-3.6-188.6-3.6-282.9z"/>
	<path id="Layer" class="s0" d="m1520.3 275.8q2.9 0 5.9 0 8.1 0 16.2 0 8.8 0 17.5 0 15.2 0 30.3 0 21.9 0 43.9 0 35.5 0 71.1 0 34.5 0.1 69 0.1c1.1 0 1.1 0 2.1 0q10.7 0 21.4 0 21.8 0 43.6 0c1 0 1 0 2.1 0q66.8 0 133.6 0.1c0 23.8 0 47.5 0 72-5.7 0-11.4 0-17.2 0q-78.1 0.1-156.1 0.3-10.3 0-20.5 0c-1 0-1 0-2 0q-33 0.1-66 0.1-34.9 0.1-69.8 0.1-20.8 0.1-41.7 0.1-14.3 0-28.7 0.1-8.2 0-16.5 0-7.6 0-15.1 0-2.8 0-5.5 0c-19.7-0.3-19.7-0.3-36.9 8.3-5.5 7.4-5.8 16.5-4.7 25.4 1.3 6.6 3.6 11.4 9.3 15.3 10.3 5.7 22 6.2 33.5 7.1q2.9 0.3 5.7 0.5 10.1 0.9 20.2 1.7 3.9 0.3 7.8 0.6 29 2.4 58 4.8 13.1 1 26.2 2.1 23.5 1.9 46.9 3.7c1.4 0.2 1.4 0.2 2.8 0.3q15.6 1.2 31.1 2.5 5.7 0.4 11.4 0.9c1.4 0.1 1.4 0.1 2.8 0.2q23.4 1.9 46.8 3.8 14.3 1.1 28.7 2.3 9.8 0.8 19.6 1.6 5.7 0.4 11.3 0.9c14.3 1.1 28.6 2.3 42.8 3.8q1.7 0.2 3.4 0.4c26.4 2.8 53 9.2 73.4 27.1q1 0.9 2.1 1.8c17.1 15.9 22.4 39.8 23.9 62.2 1.3 33.3-2.2 65.8-24.7 92-20.2 21.4-52.2 26.8-80.3 28-6.6 0.2-13.2 0.1-19.8 0.1q-3 0-5.9 0-8.1 0-16.3 0-8.7 0-17.5 0-15.1 0-30.3 0-22 0-43.9 0-35.6 0-71.2 0-34.5 0-69.1 0-1 0-2.1 0-10.7 0-21.4 0-21.9-0.1-43.7-0.1c-1 0-1 0-2 0q-66.9 0-133.8 0c0-24.1 0-48.2 0-73 5.8 0 11.6 0 17.5 0q79.4-0.1 158.9-0.3 10.4 0 20.8 0 1 0 2.1 0 33.6-0.1 67.1-0.1 35.5-0.1 71-0.1 21.3-0.1 42.5-0.1 14.6 0 29.1-0.1 8.5 0 16.9 0 7.7 0 15.4 0 2.7 0 5.5 0c19.2 0.4 19.2 0.4 36.2-7.3 6.4-6.8 7.9-14.3 8.1-23.5-0.3-8.3-1.6-15.9-7.7-22.1-7.2-5.7-16.4-6.9-25.3-7.9-1.6-0.2-1.6-0.2-3.3-0.4-14.2-1.5-28.5-2.7-42.8-3.9q-6.3-0.5-12.7-1-10.9-0.9-21.8-1.8-15.8-1.3-31.6-2.6-25.7-2.1-51.5-4.3c-1.5-0.1-1.5-0.1-3.1-0.2q-7.7-0.6-15.5-1.3-15.6-1.3-31.1-2.5c-1.5-0.2-1.5-0.2-3.1-0.3q-25.6-2.1-51.3-4.2-15.7-1.3-31.5-2.6-10.8-0.9-21.6-1.8-6.2-0.5-12.4-1c-14.8-1.2-29.5-2.5-44.2-4.1-1.5-0.2-1.5-0.2-3.1-0.4-27.8-3.3-58.2-11.1-76.8-33.8-19.3-26.7-22-62.9-17.2-94.7 3.2-18.5 10.1-34.2 23.5-47.6q1-1 2.1-2.1c23.6-22.5 58.3-25.2 89.2-25.1z"/>
	<path id="Layer" fill-rule="evenodd" class="s0" d="m3000.1 275.8q2.7 0 5.5 0 7.4 0 14.8 0 8.1 0 16.2 0 13.9 0 27.8 0 20.2 0 40.3 0 32.7 0 65.4 0 31.7 0.1 63.4 0.1 2 0 4 0 15.5 0 31 0 75.7 0 151.5 0.1c0 122.1 0 244.2 0 370-32.3 0-64.7 0-98 0 0-35.6 0-71.3 0-108-122.4 0-244.9 0-371 0 0 36 0 71.9 0 109-32.3 0-64.7 0-98 0q-0.1-47.2-0.2-94.4 0-5.6 0-11.1 0-1.2 0-2.3 0-17.9 0-35.9-0.1-18.4-0.1-36.9 0-11.3 0-22.7 0-8.7 0-17.5 0-3.6-0.1-7.1c-0.1-40.4 7-78.5 36.3-108.3 5-4.9 10.1-9.1 16.1-12.8q1.5-1 3.1-2c12.9-7.8 26.7-12.5 41.3-15.8 1.3-0.3 1.3-0.3 2.6-0.6 15.8-3.3 32-3.9 48.1-3.8zm-34 90.5c-20.6 26.1-15.1 69.3-15.1 98.7 122.4 0 244.9 0 371 0 0-38.6 0-77.2 0-117q-58.8-0.1-117.7-0.1-6.9 0-13.9 0c-1.4 0-1.4 0-2.8 0q-22.3 0-44.7-0.1-23 0-46 0-14.2 0-28.3 0-9.8 0-19.5 0-5.6 0-11.2 0c-39.2-0.8-39.2-0.8-71.8 18.5z"/>
	<path id="Layer" class="s0" d="m3539 276c183.8 0 367.6 0 557 0 0 24.1 0 48.2 0 73-75.6 0-151.1 0-229 0 0 98 0 196 0 297-32.3 0-64.7 0-98 0 0-98 0-196 0-297-75.9 0-151.8 0-230 0 0-24.1 0-48.2 0-73z"/>
</svg>