<svg width="16" height="16" viewBox="0 0 16 16" fill="none" xmlns="http://www.w3.org/2000/svg">
<path d="M14.666 4.83331H10.666C10.3927 4.83331 10.166 4.60665 10.166 4.33331C10.166 4.05998 10.3927 3.83331 10.666 3.83331H14.666C14.9393 3.83331 15.166 4.05998 15.166 4.33331C15.166 4.60665 14.9393 4.83331 14.666 4.83331Z" fill="#003C4A"/>
<path d="M4.00065 4.83331H1.33398C1.06065 4.83331 0.833984 4.60665 0.833984 4.33331C0.833984 4.05998 1.06065 3.83331 1.33398 3.83331H4.00065C4.27398 3.83331 4.50065 4.05998 4.50065 4.33331C4.50065 4.60665 4.27398 4.83331 4.00065 4.83331Z" fill="#003C4A"/>
<path d="M6.66732 7.16667C5.10732 7.16667 3.83398 5.89333 3.83398 4.33333C3.83398 2.77333 5.10732 1.5 6.66732 1.5C8.22732 1.5 9.50065 2.77333 9.50065 4.33333C9.50065 5.89333 8.22732 7.16667 6.66732 7.16667ZM6.66732 2.5C5.65398 2.5 4.83398 3.32 4.83398 4.33333C4.83398 5.34667 5.65398 6.16667 6.66732 6.16667C7.68065 6.16667 8.50065 5.34667 8.50065 4.33333C8.50065 3.32 7.68065 2.5 6.66732 2.5Z" fill="#003C4A"/>
<path d="M14.6667 12.1667H12C11.7267 12.1667 11.5 11.94 11.5 11.6667C11.5 11.3934 11.7267 11.1667 12 11.1667H14.6667C14.94 11.1667 15.1667 11.3934 15.1667 11.6667C15.1667 11.94 14.94 12.1667 14.6667 12.1667Z" fill="#003C4A"/>
<path d="M5.33398 12.1667H1.33398C1.06065 12.1667 0.833984 11.94 0.833984 11.6667C0.833984 11.3934 1.06065 11.1667 1.33398 11.1667H5.33398C5.60732 11.1667 5.83398 11.3934 5.83398 11.6667C5.83398 11.94 5.60732 12.1667 5.33398 12.1667Z" fill="#003C4A"/>
<path d="M9.33333 14.5C7.77333 14.5 6.5 13.2266 6.5 11.6666C6.5 10.1066 7.77333 8.83331 9.33333 8.83331C10.8933 8.83331 12.1667 10.1066 12.1667 11.6666C12.1667 13.2266 10.8933 14.5 9.33333 14.5ZM9.33333 9.83331C8.32 9.83331 7.5 10.6533 7.5 11.6666C7.5 12.68 8.32 13.5 9.33333 13.5C10.3467 13.5 11.1667 12.68 11.1667 11.6666C11.1667 10.6533 10.3467 9.83331 9.33333 9.83331Z" fill="#003C4A"/>
</svg>
