<svg width="16" height="16" viewBox="0 0 16 16" fill="none" xmlns="http://www.w3.org/2000/svg">
<path d="M14.667 4.83331H10.667C10.3937 4.83331 10.167 4.60665 10.167 4.33331C10.167 4.05998 10.3937 3.83331 10.667 3.83331H14.667C14.9403 3.83331 15.167 4.05998 15.167 4.33331C15.167 4.60665 14.9403 4.83331 14.667 4.83331Z" fill="#1BEA93"/>
<path d="M3.99967 4.83331H1.33301C1.05967 4.83331 0.833008 4.60665 0.833008 4.33331C0.833008 4.05998 1.05967 3.83331 1.33301 3.83331H3.99967C4.27301 3.83331 4.49967 4.05998 4.49967 4.33331C4.49967 4.60665 4.27301 4.83331 3.99967 4.83331Z" fill="#1BEA93"/>
<path d="M6.66634 7.16667C5.10634 7.16667 3.83301 5.89333 3.83301 4.33333C3.83301 2.77333 5.10634 1.5 6.66634 1.5C8.22634 1.5 9.49967 2.77333 9.49967 4.33333C9.49967 5.89333 8.22634 7.16667 6.66634 7.16667ZM6.66634 2.5C5.65301 2.5 4.83301 3.32 4.83301 4.33333C4.83301 5.34667 5.65301 6.16667 6.66634 6.16667C7.67967 6.16667 8.49967 5.34667 8.49967 4.33333C8.49967 3.32 7.67967 2.5 6.66634 2.5Z" fill="#1BEA93"/>
<path d="M14.6667 12.1667H12C11.7267 12.1667 11.5 11.94 11.5 11.6667C11.5 11.3934 11.7267 11.1667 12 11.1667H14.6667C14.94 11.1667 15.1667 11.3934 15.1667 11.6667C15.1667 11.94 14.94 12.1667 14.6667 12.1667Z" fill="#1BEA93"/>
<path d="M5.33301 12.1667H1.33301C1.05967 12.1667 0.833008 11.94 0.833008 11.6667C0.833008 11.3934 1.05967 11.1667 1.33301 11.1667H5.33301C5.60634 11.1667 5.83301 11.3934 5.83301 11.6667C5.83301 11.94 5.60634 12.1667 5.33301 12.1667Z" fill="#1BEA93"/>
<path d="M9.33333 14.5C7.77333 14.5 6.5 13.2266 6.5 11.6666C6.5 10.1066 7.77333 8.83331 9.33333 8.83331C10.8933 8.83331 12.1667 10.1066 12.1667 11.6666C12.1667 13.2266 10.8933 14.5 9.33333 14.5ZM9.33333 9.83331C8.32 9.83331 7.5 10.6533 7.5 11.6666C7.5 12.68 8.32 13.5 9.33333 13.5C10.3467 13.5 11.1667 12.68 11.1667 11.6666C11.1667 10.6533 10.3467 9.83331 9.33333 9.83331Z" fill="#1BEA93"/>
</svg>
