<svg width="16" height="16" viewBox="0 0 16 16" fill="none" xmlns="http://www.w3.org/2000/svg">
<path d="M14.668 4.83331H10.668C10.3946 4.83331 10.168 4.60665 10.168 4.33331C10.168 4.05998 10.3946 3.83331 10.668 3.83331H14.668C14.9413 3.83331 15.168 4.05998 15.168 4.33331C15.168 4.60665 14.9413 4.83331 14.668 4.83331Z" fill="#011E50"/>
<path d="M3.9987 4.83331H1.33203C1.0587 4.83331 0.832031 4.60665 0.832031 4.33331C0.832031 4.05998 1.0587 3.83331 1.33203 3.83331H3.9987C4.27203 3.83331 4.4987 4.05998 4.4987 4.33331C4.4987 4.60665 4.27203 4.83331 3.9987 4.83331Z" fill="#011E50"/>
<path d="M6.66536 7.16667C5.10536 7.16667 3.83203 5.89333 3.83203 4.33333C3.83203 2.77333 5.10536 1.5 6.66536 1.5C8.22536 1.5 9.4987 2.77333 9.4987 4.33333C9.4987 5.89333 8.22536 7.16667 6.66536 7.16667ZM6.66536 2.5C5.65203 2.5 4.83203 3.32 4.83203 4.33333C4.83203 5.34667 5.65203 6.16667 6.66536 6.16667C7.6787 6.16667 8.4987 5.34667 8.4987 4.33333C8.4987 3.32 7.6787 2.5 6.66536 2.5Z" fill="#011E50"/>
<path d="M14.6667 12.1667H12C11.7267 12.1667 11.5 11.94 11.5 11.6667C11.5 11.3934 11.7267 11.1667 12 11.1667H14.6667C14.94 11.1667 15.1667 11.3934 15.1667 11.6667C15.1667 11.94 14.94 12.1667 14.6667 12.1667Z" fill="#011E50"/>
<path d="M5.33203 12.1667H1.33203C1.0587 12.1667 0.832031 11.94 0.832031 11.6667C0.832031 11.3934 1.0587 11.1667 1.33203 11.1667H5.33203C5.60536 11.1667 5.83203 11.3934 5.83203 11.6667C5.83203 11.94 5.60536 12.1667 5.33203 12.1667Z" fill="#011E50"/>
<path d="M9.33333 14.5C7.77333 14.5 6.5 13.2266 6.5 11.6666C6.5 10.1066 7.77333 8.83331 9.33333 8.83331C10.8933 8.83331 12.1667 10.1066 12.1667 11.6666C12.1667 13.2266 10.8933 14.5 9.33333 14.5ZM9.33333 9.83331C8.32 9.83331 7.5 10.6533 7.5 11.6666C7.5 12.68 8.32 13.5 9.33333 13.5C10.3467 13.5 11.1667 12.68 11.1667 11.6666C11.1667 10.6533 10.3467 9.83331 9.33333 9.83331Z" fill="#011E50"/>
</svg>
