<svg xmlns="http://www.w3.org/2000/svg" viewBox="0 0 51.98 70.51" width="42" height="55">
    <defs>
        <style>.cls-1{fill:#4b4b4b;}.cls-2{fill:#fff;}</style>
    </defs>
    <g id="Calque_2" data-name="Calque 2">
        <g id="Calque_1-2" data-name="Calque 1">
            <path class="cls-1" d="M0,26C0,47,26,70.51,26,70.51S52,46.33,52,26A26,26,0,0,0,0,26Z"/>
            <path class="cls-2"
                  d="M20.39,37.88l-6-6,3.77-3.77a10,10,0,0,1,14.49-12l1.12.66-5.5,5.5L30,24l5.5-5.5.66,1.11a10,10,0,0,1-12,14.49Zm-3.17-6,3.17,3.17,3.31-3.31.63.28A8,8,0,0,0,35.05,21.83l-5,5-4.6-4.61,5-5A8,8,0,0,0,20.25,28l.28.63Z"/>
        </g>
    </g>
</svg>