<svg width="149" height="21" viewBox="0 0 149 21" fill="none" xmlns="http://www.w3.org/2000/svg">
<g clip-path="url(#clip0_441_31960)">
<path d="M2.18823 0.935494C3.10779 0.184585 4.26675 -0.192125 5.44254 -0.120853C5.44254 2.24642 5.44254 4.61368 5.44254 6.98095C5.46124 7.55368 5.93132 8.00232 6.49241 7.98259C6.508 7.98195 6.5242 7.98132 6.53978 7.98004H20.5857C21.7596 7.9425 22.9036 8.36378 23.7839 9.15732C24.6149 9.96996 25.0831 11.0944 25.0806 12.2691C25.0806 13.7073 25.0806 15.1436 25.0806 16.5773C25.07 17.999 24.4167 19.3353 23.3101 20.1982C22.4809 20.8231 21.4728 21.1502 20.4423 21.1273H0C0.928912 19.6128 1.87029 18.0919 2.7805 16.5773C8.20435 16.5773 13.6282 16.5773 19.052 16.5773C19.61 16.641 20.1125 16.2305 20.1742 15.661C20.178 15.6291 20.1798 15.5973 20.1805 15.5655C20.1805 14.5473 20.1805 13.5291 20.1805 12.511H5.28046C4.14769 12.5587 3.03299 12.2106 2.11966 11.5246C1.15521 10.7361 0.589761 9.54678 0.579786 8.28551C0.579786 6.99178 0.579786 5.6955 0.579786 4.39731C0.592878 3.0584 1.18139 1.79331 2.18823 0.935494Z" fill="#78FAAE"/>
<path d="M7.5249 -0.114502H24.6194C23.7341 1.34277 22.8176 2.78096 21.9448 4.24459C18.0422 4.28914 14.1333 4.24459 10.2306 4.24459L7.5249 -0.114502Z" fill="#78FAAE"/>
<path d="M30.4546 -0.108129H35.442C35.442 2.61105 35.442 5.32832 35.442 8.04369C37.7674 8.04369 40.0991 8.04369 42.4245 8.04369C45.1613 5.32641 47.8857 2.5837 50.6413 -0.12085C52.9168 -0.12085 55.1985 -0.12085 57.499 -0.12085C53.8501 3.46379 50.2005 7.04906 46.5516 10.6337C50.1594 14.1292 53.7647 17.6273 57.3681 21.1273C55.0614 21.1273 52.7609 21.1273 50.4542 21.1273C47.6569 18.37 44.8602 15.612 42.0629 12.8546C39.8746 12.8546 37.6988 12.8546 35.4919 12.8546C35.4919 15.6164 35.4919 18.3738 35.4919 21.1273H30.5045C30.4714 14.051 30.4546 6.97269 30.4546 -0.108129Z" fill="#78FAAE"/>
<path d="M64.7618 0.0699849C65.4295 -0.0585606 66.1091 -0.114567 66.788 -0.0954759C70.5286 -0.0954759 74.2692 -0.0954759 78.0097 -0.0954759C80.2703 -0.0827486 82.4062 0.966628 83.8263 2.76181C84.85 4.08736 85.408 5.72535 85.4099 7.41363C85.4099 9.51999 85.4099 11.6263 85.4099 13.7327C85.3768 15.9651 84.3687 18.0657 82.6605 19.46C81.2921 20.5418 79.6094 21.1266 77.8788 21.1209H67.4924C66.7474 21.1489 66.0012 21.119 65.2606 21.0318C61.5823 20.5615 58.8293 17.3574 58.8517 13.5736C58.8517 11.4673 58.8517 9.36089 58.8517 7.26089C58.8897 5.17298 59.78 3.19645 61.308 1.80726C62.2924 0.932901 63.4826 0.334076 64.7618 0.0699849ZM65.5723 4.75998C64.5361 5.06416 63.8236 6.03335 63.8267 7.13362C63.8267 9.42453 63.8267 11.7154 63.8267 14.0063C63.8772 15.3255 64.9395 16.3685 66.2331 16.3672H78.0347C79.3208 16.3653 80.3781 15.3306 80.4349 14.0191C80.4349 11.6817 80.4349 9.34817 80.4349 7.01908C80.3713 5.70754 79.309 4.67853 78.0222 4.68362H67.0872C66.5835 4.64098 66.0766 4.66263 65.5785 4.74726L65.5723 4.75998Z" fill="#78FAAE"/>
<path d="M90.9771 -0.108136H109.057C110.51 -0.120227 111.939 0.285135 113.177 1.06277C115.235 2.37495 116.523 4.64041 116.619 7.1146C116.619 8.54641 116.619 9.97822 116.619 11.4164C116.619 12.8546 116.737 14.4582 116.263 15.9091C115.517 18.2993 113.643 20.1454 111.276 20.8219C109.917 21.2482 108.483 21.1273 107.08 21.14H90.9833C90.9789 14.0554 90.9771 6.97268 90.9771 -0.108136ZM95.9645 4.65822C95.9645 8.55722 95.9645 12.4556 95.9645 16.3546H109.2C110.178 16.3699 111.068 15.7819 111.457 14.8655C111.633 14.3577 111.701 13.8174 111.656 13.281C111.656 11.181 111.656 9.08094 111.656 6.98095C111.586 5.66367 110.511 4.6366 109.219 4.65187L95.9645 4.65822Z" fill="#78FAAE"/>
<path d="M130.303 -0.108154H137.161C141.064 6.96375 144.968 14.0446 148.875 21.1337C147.005 21.1337 145.091 21.1337 143.202 21.1337C142.485 19.8609 141.793 18.5882 141.076 17.3155H131.17L128.589 13.1409L124.187 21.1464C122.317 21.1464 120.49 21.1464 118.645 21.1464C122.523 14.0573 126.409 6.97266 130.303 -0.108154ZM128.676 12.8991H138.651C136.993 9.87639 135.316 6.8664 133.663 3.83731C132.005 6.84731 130.366 9.88276 128.676 12.8991Z" fill="#78FAAE"/>
</g>
<defs>
<clipPath id="clip0_441_31960">
<rect width="149" height="21" fill="white"/>
</clipPath>
</defs>
</svg>
