<svg xmlns="http://www.w3.org/2000/svg" viewBox="0 0 51.98 70.51" width="42" height="55">
    <defs>
        <style>.cls-1{fill:#4b4b4b;}.cls-2{fill:#fff;}</style>
    </defs>
    <g id="Calque_2" data-name="Calque 2">
        <g id="Calque_1-2" data-name="Calque 1">
            <path class="cls-1" d="M0,26C0,47,26,70.51,26,70.51S52,46.33,52,26A26,26,0,0,0,0,26Z"/>
            <path class="cls-2"
                  d="M20.39,57.16l-6-6,3.77-3.77a10,10,0,0,1,14.49-12l1.12.66-5.5,5.5L30,43.29l5.5-5.5.66,1.11a10,10,0,0,1-12,14.49Zm-3.17-6,3.17,3.17L23.7,51l.63.28A8,8,0,0,0,35.05,41.11l-5,5-4.6-4.6,5-5a8,8,0,0,0-10.2,10.73l.28.63Z"/>
            <path class="cls-2"
                  d="M38.35,30H30.21V24.52H21.77V30H13.63V17.29l4.15-7.74H34.2l4.15,7.74Zm-6.14-2h4.14V17.8L34.83,15,30.4,19H21.58l-4.43-4L15.63,17.8V28h4.14V22.52H32.21ZM22.35,17h7.28l4.23-3.82L33,11.55H19l-.86,1.6Z"/>
        </g>
    </g>
</svg>