<svg width="80" height="80" viewBox="0 0 80 80" fill="none" xmlns="http://www.w3.org/2000/svg">
<path d="M39.9993 63.3333C47.3631 63.3333 53.3327 57.3638 53.3327 50C53.3327 42.6362 47.3631 36.6666 39.9993 36.6666C32.6356 36.6666 26.666 42.6362 26.666 50C26.666 57.3638 32.6356 63.3333 39.9993 63.3333Z" stroke="#0E3A2F" stroke-width="1.5" stroke-miterlimit="10" stroke-linecap="round" stroke-linejoin="round"/>
<path d="M34.8008 49.9999L36.9674 52.1666C37.6008 52.7999 38.6341 52.8333 39.2674 52.1999L45.2008 46.7333" stroke="#0E3A2F" stroke-width="1.5" stroke-linecap="round" stroke-linejoin="round"/>
<path d="M29.9994 73.3333H49.9994C63.3994 73.3333 65.7994 67.9666 66.4994 61.4333L68.9994 41.4333C69.8994 33.3 67.5661 26.6666 53.3328 26.6666H26.6661C12.4328 26.6666 10.0994 33.3 10.9994 41.4333L13.4994 61.4333C14.1994 67.9666 16.5994 73.3333 29.9994 73.3333Z" stroke="#0E3A2F" stroke-width="1.5" stroke-miterlimit="10" stroke-linecap="round" stroke-linejoin="round"/>
<path d="M25 25.5667V22.3334C25 14.8334 31.0333 7.4667 38.5333 6.7667C47.4667 5.90003 55 12.9334 55 21.7V26.3" stroke="#0E3A2F" stroke-width="1.5" stroke-miterlimit="10" stroke-linecap="round" stroke-linejoin="round"/>
</svg>
