<svg width="81" height="80" viewBox="0 0 81 80" fill="none" xmlns="http://www.w3.org/2000/svg">
<path d="M40.5013 63.3333C47.8651 63.3333 53.8346 57.3638 53.8346 50C53.8346 42.6362 47.8651 36.6666 40.5013 36.6666C33.1375 36.6666 27.168 42.6362 27.168 50C27.168 57.3638 33.1375 63.3333 40.5013 63.3333Z" stroke="#003C4A" stroke-width="1.5" stroke-miterlimit="10" stroke-linecap="round" stroke-linejoin="round"/>
<path d="M35.3008 49.9999L37.4674 52.1666C38.1008 52.7999 39.1341 52.8333 39.7674 52.1999L45.7008 46.7333" stroke="#003C4A" stroke-width="1.5" stroke-linecap="round" stroke-linejoin="round"/>
<path d="M30.5014 73.3333H50.5014C63.9014 73.3333 66.3014 67.9666 67.0014 61.4333L69.5014 41.4333C70.4014 33.3 68.068 26.6666 53.8347 26.6666H27.168C12.9347 26.6666 10.6014 33.3 11.5014 41.4333L14.0014 61.4333C14.7014 67.9666 17.1014 73.3333 30.5014 73.3333Z" stroke="#003C4A" stroke-width="1.5" stroke-miterlimit="10" stroke-linecap="round" stroke-linejoin="round"/>
<path d="M25.5 25.5667V22.3334C25.5 14.8334 31.5333 7.4667 39.0333 6.7667C47.9667 5.90003 55.5 12.9334 55.5 21.7V26.3" stroke="#003C4A" stroke-width="1.5" stroke-miterlimit="10" stroke-linecap="round" stroke-linejoin="round"/>
</svg>
