<svg width="81" height="80" viewBox="0 0 81 80" fill="none" xmlns="http://www.w3.org/2000/svg">
<path d="M40.5003 63.3333C47.8641 63.3333 53.8337 57.3638 53.8337 50C53.8337 42.6362 47.8641 36.6666 40.5003 36.6666C33.1365 36.6666 27.167 42.6362 27.167 50C27.167 57.3638 33.1365 63.3333 40.5003 63.3333Z" stroke="#EA5D1B" stroke-width="1.5" stroke-miterlimit="10" stroke-linecap="round" stroke-linejoin="round"/>
<path d="M35.2998 49.9999L37.4665 52.1666C38.0998 52.7999 39.1331 52.8333 39.7665 52.1999L45.6998 46.7333" stroke="#EA5D1B" stroke-width="1.5" stroke-linecap="round" stroke-linejoin="round"/>
<path d="M30.5004 73.3333H50.5004C63.9004 73.3333 66.3004 67.9666 67.0004 61.4333L69.5004 41.4333C70.4004 33.3 68.0671 26.6666 53.8337 26.6666H27.1671C12.9337 26.6666 10.6004 33.3 11.5004 41.4333L14.0004 61.4333C14.7004 67.9666 17.1004 73.3333 30.5004 73.3333Z" stroke="#EA5D1B" stroke-width="1.5" stroke-miterlimit="10" stroke-linecap="round" stroke-linejoin="round"/>
<path d="M25.5 25.5667V22.3334C25.5 14.8334 31.5333 7.4667 39.0333 6.7667C47.9667 5.90003 55.5 12.9334 55.5 21.7V26.3" stroke="#EA5D1B" stroke-width="1.5" stroke-miterlimit="10" stroke-linecap="round" stroke-linejoin="round"/>
</svg>
