<svg width="16" height="17" viewBox="0 0 16 17" fill="none" xmlns="http://www.w3.org/2000/svg">
<path d="M7.99973 9.36665C7.91306 9.36665 7.8264 9.34665 7.7464 9.29999L1.85973 5.89332C1.6264 5.75332 1.53973 5.44665 1.67973 5.20665C1.81973 4.96665 2.1264 4.88665 2.3664 5.02665L7.99973 8.28665L13.5997 5.04665C13.8397 4.90665 14.1464 4.99332 14.2864 5.22665C14.4264 5.46665 14.3397 5.77332 14.1064 5.91332L8.25973 9.29999C8.17306 9.33999 8.0864 9.36665 7.99973 9.36665Z" fill="#161718"/>
<path d="M8 15.4067C7.72667 15.4067 7.5 15.18 7.5 14.9067V8.85999C7.5 8.58665 7.72667 8.35999 8 8.35999C8.27333 8.35999 8.5 8.58665 8.5 8.85999V14.9067C8.5 15.18 8.27333 15.4067 8 15.4067Z" fill="#161718"/>
<path d="M7.99944 15.6667C7.41277 15.6667 6.83277 15.54 6.37277 15.2867L2.81277 13.3067C1.84611 12.7734 1.09277 11.4867 1.09277 10.38V6.61337C1.09277 5.50671 1.84611 4.22671 2.81277 3.68671L6.37277 1.71337C7.28611 1.20671 8.71277 1.20671 9.62611 1.71337L13.1861 3.69337C14.1528 4.22671 14.9061 5.51337 14.9061 6.62004V10.3867C14.9061 11.4934 14.1528 12.7734 13.1861 13.3134L9.62611 15.2867C9.16611 15.54 8.58611 15.6667 7.99944 15.6667ZM7.99944 2.33337C7.57944 2.33337 7.16611 2.42004 6.85944 2.58671L3.29944 4.56671C2.65944 4.92004 2.09277 5.88004 2.09277 6.61337V10.38C2.09277 11.1134 2.65944 12.0734 3.29944 12.4334L6.85944 14.4134C7.46611 14.7534 8.53277 14.7534 9.13944 14.4134L12.6994 12.4334C13.3394 12.0734 13.9061 11.12 13.9061 10.38V6.61337C13.9061 5.88004 13.3394 4.92004 12.6994 4.56004L9.13944 2.58004C8.83277 2.42004 8.41944 2.33337 7.99944 2.33337Z" fill="#161718"/>
</svg>
