<svg width="16" height="17" viewBox="0 0 16 17" fill="none" xmlns="http://www.w3.org/2000/svg">
<path d="M13.3329 8.33339H2.66625C2.51291 8.33339 2.37291 8.26672 2.27958 8.14672C2.18625 8.03339 2.14625 7.87339 2.17958 7.72672L2.93291 4.12672C3.17958 2.96005 3.67958 1.88672 5.65958 1.88672H10.3462C12.3262 1.88672 12.8262 2.96672 13.0729 4.12672L13.8262 7.73339C13.8596 7.88005 13.8196 8.03339 13.7262 8.15339C13.6262 8.26672 13.4862 8.33339 13.3329 8.33339ZM3.27958 7.33339H12.7129L12.0862 4.33339C11.8996 3.46005 11.6796 2.88672 10.3396 2.88672H5.65958C4.31958 2.88672 4.09958 3.46005 3.91291 4.33339L3.27958 7.33339Z" fill="#161718"/>
<path d="M13.3064 15.6667H12.0531C10.9731 15.6667 10.7664 15.0467 10.6331 14.64L10.4997 14.24C10.3264 13.7334 10.3064 13.6667 9.7064 13.6667H6.29307C5.69306 13.6667 5.65307 13.78 5.49973 14.24L5.3664 14.64C5.2264 15.0534 5.0264 15.6667 3.9464 15.6667H2.69307C2.1664 15.6667 1.65973 15.4467 1.3064 15.06C0.959732 14.68 0.793065 14.1734 0.839732 13.6667L1.21307 9.60671C1.31307 8.50671 1.6064 7.33337 3.7464 7.33337H12.2531C14.3931 7.33337 14.6797 8.50671 14.7864 9.60671L15.1597 13.6667C15.2064 14.1734 15.0397 14.68 14.6931 15.06C14.3397 15.4467 13.8331 15.6667 13.3064 15.6667ZM6.29307 12.6667H9.7064C10.9197 12.6667 11.2064 13.2067 11.4464 13.9134L11.5864 14.3267C11.6997 14.6667 11.6997 14.6734 12.0597 14.6734H13.3131C13.5597 14.6734 13.7931 14.5734 13.9597 14.3934C14.1197 14.22 14.1931 14 14.1731 13.7667L13.7997 9.70671C13.7131 8.80671 13.6064 8.34004 12.2664 8.34004H3.7464C2.39973 8.34004 2.29307 8.80671 2.21307 9.70671L1.83973 13.7667C1.81973 14 1.89306 14.22 2.05307 14.3934C2.21307 14.5734 2.45307 14.6734 2.69973 14.6734H3.95306C4.31307 14.6734 4.31307 14.6667 4.4264 14.3334L4.55973 13.9267C4.7264 13.3934 4.97306 12.6667 6.29307 12.6667Z" fill="#161718"/>
<path d="M2.66667 6.33337H2C1.72667 6.33337 1.5 6.10671 1.5 5.83337C1.5 5.56004 1.72667 5.33337 2 5.33337H2.66667C2.94 5.33337 3.16667 5.56004 3.16667 5.83337C3.16667 6.10671 2.94 6.33337 2.66667 6.33337Z" fill="#161718"/>
<path d="M13.9997 6.33337H13.333C13.0597 6.33337 12.833 6.10671 12.833 5.83337C12.833 5.56004 13.0597 5.33337 13.333 5.33337H13.9997C14.273 5.33337 14.4997 5.56004 14.4997 5.83337C14.4997 6.10671 14.273 6.33337 13.9997 6.33337Z" fill="#161718"/>
<path d="M8 4.33333C7.72667 4.33333 7.5 4.10667 7.5 3.83333V2.5C7.5 2.22667 7.72667 2 8 2C8.27333 2 8.5 2.22667 8.5 2.5V3.83333C8.5 4.10667 8.27333 4.33333 8 4.33333Z" fill="#161718"/>
<path d="M9 4.33337H7C6.72667 4.33337 6.5 4.10671 6.5 3.83337C6.5 3.56004 6.72667 3.33337 7 3.33337H9C9.27333 3.33337 9.5 3.56004 9.5 3.83337C9.5 4.10671 9.27333 4.33337 9 4.33337Z" fill="#161718"/>
<path d="M6 11H4C3.72667 11 3.5 10.7733 3.5 10.5C3.5 10.2267 3.72667 10 4 10H6C6.27333 10 6.5 10.2267 6.5 10.5C6.5 10.7733 6.27333 11 6 11Z" fill="#161718"/>
<path d="M12 11H10C9.72667 11 9.5 10.7733 9.5 10.5C9.5 10.2267 9.72667 10 10 10H12C12.2733 10 12.5 10.2267 12.5 10.5C12.5 10.7733 12.2733 11 12 11Z" fill="#161718"/>
</svg>
