<svg width="24" height="18" viewBox="0 0 24 18" fill="none" xmlns="http://www.w3.org/2000/svg">
<path fill-rule="evenodd" clip-rule="evenodd" d="M13.7601 1.7982C14.8507 0.702726 16.3328 0.0867775 17.8786 0.0865274C18.777 0.0862493 19.663 0.295307 20.4665 0.697117C23.0351 2.04893 24.0567 5.20265 22.7687 7.80381C21.4675 10.2062 15.366 17.9134 12.0415 17.9134C8.70463 17.9134 2.53242 10.2062 1.23118 7.80381C-0.0568242 5.20265 0.964824 2.04893 3.5334 0.697117C5.77245 -0.420193 8.47554 0.0236114 10.2398 1.7982L12.0415 3.59983L13.7601 1.7982ZM9.29936 2.73863C8.45908 1.89118 7.3147 1.41509 6.12129 1.41648C5.42952 1.4172 4.74732 1.57815 4.12818 1.8867C3.19225 2.37594 2.49296 3.2217 2.1883 4.23289C1.86163 5.20082 1.93815 6.25949 2.40062 7.17039C3.82872 9.80686 9.65886 16.5835 12.0415 16.5835C14.3447 16.5835 20.0065 10.1109 21.5993 7.17039C22.0617 6.2595 22.1383 5.20083 21.8116 4.23289C21.5069 3.22171 20.8077 2.37595 19.8717 1.8867C18.1447 1.02534 16.06 1.36879 14.7006 2.73863L13.0038 4.5178L12.0639 5.50315L11.101 4.54026L9.29936 2.73863Z" fill="black"/>
</svg>
