<svg width="24" height="25" viewBox="0 0 24 25" fill="none" xmlns="http://www.w3.org/2000/svg">
<path d="M12.1605 12.12C12.1305 12.12 12.1105 12.12 12.0805 12.12C12.0305 12.11 11.9605 12.11 11.9005 12.12C9.00055 12.03 6.81055 9.75 6.81055 6.94C6.81055 4.08 9.14055 1.75 12.0005 1.75C14.8605 1.75 17.1905 4.08 17.1905 6.94C17.1805 9.75 14.9805 12.03 12.1905 12.12C12.1805 12.12 12.1705 12.12 12.1605 12.12ZM12.0005 3.25C9.97055 3.25 8.31055 4.91 8.31055 6.94C8.31055 8.94 9.87055 10.55 11.8605 10.62C11.9105 10.61 12.0505 10.61 12.1805 10.62C14.1405 10.53 15.6805 8.92 15.6905 6.94C15.6905 4.91 14.0305 3.25 12.0005 3.25Z" fill="#161718"/>
<path d="M12.1696 23.05C10.2096 23.05 8.23961 22.55 6.74961 21.55C5.35961 20.63 4.59961 19.37 4.59961 18C4.59961 16.63 5.35961 15.36 6.74961 14.43C9.74961 12.44 14.6096 12.44 17.5896 14.43C18.9696 15.35 19.7396 16.61 19.7396 17.98C19.7396 19.35 18.9796 20.62 17.5896 21.55C16.0896 22.55 14.1296 23.05 12.1696 23.05ZM7.57961 15.69C6.61961 16.33 6.09961 17.15 6.09961 18.01C6.09961 18.86 6.62961 19.68 7.57961 20.31C10.0696 21.98 14.2696 21.98 16.7596 20.31C17.7196 19.67 18.2396 18.85 18.2396 17.99C18.2396 17.14 17.7096 16.32 16.7596 15.69C14.2696 14.03 10.0696 14.03 7.57961 15.69Z" fill="#161718"/>
</svg>
