<svg width="22" height="15" viewBox="0 0 22 15" fill="#fff" xmlns="http://www.w3.org/2000/svg">
<path fill-rule="evenodd" clip-rule="evenodd" d="M21.984 2.926V12.067C21.984 13.6802 20.6762 14.988 19.063 14.988H2.922C1.30862 14.988 0.000554893 13.6804 2.7418e-06 12.067V2.926C-0.00105907 2.15035 0.306325 1.4061 0.854421 0.857249C1.40252 0.308403 2.14635 8.18317e-07 2.922 1.54509e-06H19.059C19.8352 -0.000796078 20.5798 0.307254 21.1285 0.856187C21.6773 1.40512 21.9851 2.14983 21.984 2.926ZM7.134 4C7.60344 4 7.984 4.38056 7.984 4.85V7.15C7.984 7.61944 7.60344 8 7.134 8H4.834C4.36456 8 3.984 7.61944 3.984 7.15V4.85C3.984 4.38056 4.36456 4 4.834 4H7.134ZM19.063 1.334C19.9416 1.3351 20.6535 2.04738 20.654 2.926L20.65 12.067C20.6489 12.9452 19.9372 13.6569 19.059 13.658H2.922C2.04338 13.6575 1.33111 12.9456 1.33 12.067V2.926C1.3311 2.04722 2.04322 1.3351 2.922 1.334H19.063Z"/>
</svg>