<svg width="16" height="16" viewBox="0 0 16 16" fill="none" xmlns="http://www.w3.org/2000/svg">
<path fill-rule="evenodd" clip-rule="evenodd" d="M12.4239 10.1999H5.2465L4.06654 4.59983H13.6242L12.4239 10.1999ZM14.5643 3.83956C14.4756 3.73006 14.3419 3.66644 14.2012 3.66644H3.87007L3.45771 1.70396C3.41239 1.48778 3.22211 1.33325 3.00115 1.33325H1.13466C0.877107 1.33325 0.667969 1.54211 0.667969 1.79995C0.667969 2.0575 0.877107 2.26636 1.13466 2.26636H2.62256L3.03295 4.2204C3.03408 4.22659 3.03549 4.23278 3.03661 4.23926L4.41136 10.7626C4.45667 10.9787 4.64752 11.133 4.86791 11.133H12.8014C13.0215 11.133 13.2115 10.9796 13.2577 10.7643L14.6577 4.23081C14.687 4.09317 14.6527 3.94933 14.5643 3.83956ZM11.4013 14.3999C10.8865 14.3999 10.4679 13.9816 10.4679 13.4665C10.4679 12.9516 10.8865 12.5334 11.4013 12.5334C11.9159 12.5334 12.3347 12.9516 12.3347 13.4665C12.3347 13.9816 11.9159 14.3999 11.4013 14.3999ZM11.4013 11.6C10.3719 11.6 9.53455 12.4371 9.53455 13.4665C9.53455 14.4958 10.3719 15.3333 11.4013 15.3333C12.4304 15.3333 13.2681 14.4958 13.2681 13.4665C13.2681 12.4371 12.4304 11.6 11.4013 11.6ZM5.8013 14.3999C5.28675 14.3999 4.86791 13.9816 4.86791 13.4665C4.86791 12.9516 5.28675 12.5334 5.8013 12.5334C6.31612 12.5334 6.73468 12.9516 6.73468 13.4665C6.73468 13.9816 6.31612 14.3999 5.8013 14.3999ZM5.8013 11.6C4.77193 11.6 3.93481 12.4371 3.93481 13.4665C3.93481 14.4958 4.77193 15.3333 5.8013 15.3333C6.83067 15.3333 7.66807 14.4958 7.66807 13.4665C7.66807 12.4371 6.83067 11.6 5.8013 11.6Z" fill="#011E50"/>
</svg>
