<svg width="16" height="16" viewBox="0 0 16 16" fill="none" xmlns="http://www.w3.org/2000/svg">
<path fill-rule="evenodd" clip-rule="evenodd" d="M12.422 10.1999H5.24455L4.06459 4.59983H13.6222L12.422 10.1999ZM14.5623 3.83956C14.4737 3.73006 14.34 3.66644 14.1992 3.66644H3.86812L3.45575 1.70396C3.41043 1.48778 3.22015 1.33325 2.99919 1.33325H1.13271C0.875154 1.33325 0.666016 1.54211 0.666016 1.79995C0.666016 2.0575 0.875154 2.26636 1.13271 2.26636H2.6206L3.031 4.2204C3.03213 4.22659 3.03353 4.23278 3.03466 4.23926L4.4094 10.7626C4.45472 10.9787 4.64556 11.133 4.86596 11.133H12.7994C13.0196 11.133 13.2096 10.9796 13.2557 10.7643L14.6558 4.23081C14.6851 4.09317 14.6507 3.94933 14.5623 3.83956ZM11.3994 14.3999C10.8845 14.3999 10.466 13.9816 10.466 13.4665C10.466 12.9516 10.8845 12.5334 11.3994 12.5334C11.9139 12.5334 12.3327 12.9516 12.3327 13.4665C12.3327 13.9816 11.9139 14.3999 11.3994 14.3999ZM11.3994 11.6C10.37 11.6 9.5326 12.4371 9.5326 13.4665C9.5326 14.4958 10.37 15.3333 11.3994 15.3333C12.4285 15.3333 13.2661 14.4958 13.2661 13.4665C13.2661 12.4371 12.4285 11.6 11.3994 11.6ZM5.79934 14.3999C5.2848 14.3999 4.86596 13.9816 4.86596 13.4665C4.86596 12.9516 5.2848 12.5334 5.79934 12.5334C6.31417 12.5334 6.73273 12.9516 6.73273 13.4665C6.73273 13.9816 6.31417 14.3999 5.79934 14.3999ZM5.79934 11.6C4.76998 11.6 3.93286 12.4371 3.93286 13.4665C3.93286 14.4958 4.76998 15.3333 5.79934 15.3333C6.82871 15.3333 7.66611 14.4958 7.66611 13.4665C7.66611 12.4371 6.82871 11.6 5.79934 11.6Z" fill="#003C4A"/>
</svg>
