<svg width="16" height="16" viewBox="0 0 16 16" fill="#fff" xmlns="http://www.w3.org/2000/svg">
<path fill-rule="evenodd" clip-rule="evenodd" d="M12.423 10.1999H5.24553L4.06557 4.59983H13.6232L12.423 10.1999ZM14.5633 3.83956C14.4747 3.73006 14.341 3.66644 14.2002 3.66644H3.86909L3.45673 1.70396C3.41141 1.48778 3.22113 1.33325 3.00017 1.33325H1.13368C0.876131 1.33325 0.666992 1.54211 0.666992 1.79995C0.666992 2.0575 0.876131 2.26636 1.13368 2.26636H2.62158L3.03198 4.2204C3.0331 4.22659 3.03451 4.23278 3.03564 4.23926L4.41038 10.7626C4.4557 10.9787 4.64654 11.133 4.86694 11.133H12.8004C13.0205 11.133 13.2105 10.9796 13.2567 10.7643L14.6568 4.23081C14.686 4.09317 14.6517 3.94933 14.5633 3.83956ZM11.4003 14.3999C10.8855 14.3999 10.467 13.9816 10.467 13.4665C10.467 12.9516 10.8855 12.5334 11.4003 12.5334C11.9149 12.5334 12.3337 12.9516 12.3337 13.4665C12.3337 13.9816 11.9149 14.3999 11.4003 14.3999ZM11.4003 11.6C10.371 11.6 9.53357 12.4371 9.53357 13.4665C9.53357 14.4958 10.371 15.3333 11.4003 15.3333C12.4294 15.3333 13.2671 14.4958 13.2671 13.4665C13.2671 12.4371 12.4294 11.6 11.4003 11.6ZM5.80032 14.3999C5.28578 14.3999 4.86694 13.9816 4.86694 13.4665C4.86694 12.9516 5.28578 12.5334 5.80032 12.5334C6.31515 12.5334 6.7337 12.9516 6.7337 13.4665C6.7337 13.9816 6.31515 14.3999 5.80032 14.3999ZM5.80032 11.6C4.77095 11.6 3.93384 12.4371 3.93384 13.4665C3.93384 14.4958 4.77095 15.3333 5.80032 15.3333C6.82969 15.3333 7.66709 14.4958 7.66709 13.4665C7.66709 12.4371 6.82969 11.6 5.80032 11.6Z"/>
</svg>
