<svg width="17" height="16" viewBox="0 0 17 16" fill="none" xmlns="http://www.w3.org/2000/svg">
<path fill-rule="evenodd" clip-rule="evenodd" d="M12.9225 10.1999H5.74504L4.56508 4.59983H14.1227L12.9225 10.1999ZM15.0628 3.83956C14.9742 3.73006 14.8405 3.66644 14.6997 3.66644H4.36861L3.95624 1.70396C3.91092 1.48778 3.72064 1.33325 3.49968 1.33325H1.6332C1.37564 1.33325 1.1665 1.54211 1.1665 1.79995C1.1665 2.0575 1.37564 2.26636 1.6332 2.26636H3.12109L3.53149 4.2204C3.53261 4.22659 3.53402 4.23278 3.53515 4.23926L4.90989 10.7626C4.95521 10.9787 5.14605 11.133 5.36645 11.133H13.2999C13.52 11.133 13.71 10.9796 13.7562 10.7643L15.1563 4.23081C15.1856 4.09317 15.1512 3.94933 15.0628 3.83956ZM11.8999 14.3999C11.385 14.3999 10.9665 13.9816 10.9665 13.4665C10.9665 12.9516 11.385 12.5334 11.8999 12.5334C12.4144 12.5334 12.8332 12.9516 12.8332 13.4665C12.8332 13.9816 12.4144 14.3999 11.8999 14.3999ZM11.8999 11.6C10.8705 11.6 10.0331 12.4371 10.0331 13.4665C10.0331 14.4958 10.8705 15.3333 11.8999 15.3333C12.9289 15.3333 13.7666 14.4958 13.7666 13.4665C13.7666 12.4371 12.9289 11.6 11.8999 11.6ZM6.29983 14.3999C5.78529 14.3999 5.36645 13.9816 5.36645 13.4665C5.36645 12.9516 5.78529 12.5334 6.29983 12.5334C6.81466 12.5334 7.23322 12.9516 7.23322 13.4665C7.23322 13.9816 6.81466 14.3999 6.29983 14.3999ZM6.29983 11.6C5.27046 11.6 4.43335 12.4371 4.43335 13.4665C4.43335 14.4958 5.27046 15.3333 6.29983 15.3333C7.3292 15.3333 8.1666 14.4958 8.1666 13.4665C8.1666 12.4371 7.3292 11.6 6.29983 11.6Z" fill="#EA5D1B"/>
</svg>
