<svg width="15" height="15" viewBox="0 0 15 15" fill="none" xmlns="http://www.w3.org/2000/svg">
<path fill-rule="evenodd" clip-rule="evenodd" d="M11.923 9.19989H4.74553L3.56557 3.59983H13.1232L11.923 9.19989ZM14.0633 2.83956C13.9747 2.73006 13.841 2.66644 13.7002 2.66644H3.36909L2.95673 0.703962C2.91141 0.487785 2.72113 0.333252 2.50017 0.333252H0.633684C0.376131 0.333252 0.166992 0.542111 0.166992 0.799947C0.166992 1.0575 0.376131 1.26636 0.633684 1.26636H2.12158L2.53198 3.2204C2.5331 3.22659 2.53451 3.23278 2.53564 3.23926L3.91038 9.76257C3.9557 9.97875 4.14654 10.133 4.36694 10.133H12.3004C12.5205 10.133 12.7105 9.97959 12.7567 9.76426L14.1568 3.23081C14.186 3.09317 14.1517 2.94933 14.0633 2.83956ZM10.9003 13.3999C10.3855 13.3999 9.96696 12.9816 9.96696 12.4665C9.96696 11.9516 10.3855 11.5334 10.9003 11.5334C11.4149 11.5334 11.8337 11.9516 11.8337 12.4665C11.8337 12.9816 11.4149 13.3999 10.9003 13.3999ZM10.9003 10.6C9.87097 10.6 9.03357 11.4371 9.03357 12.4665C9.03357 13.4958 9.87097 14.3333 10.9003 14.3333C11.9294 14.3333 12.7671 13.4958 12.7671 12.4665C12.7671 11.4371 11.9294 10.6 10.9003 10.6ZM5.30032 13.3999C4.78578 13.3999 4.36694 12.9816 4.36694 12.4665C4.36694 11.9516 4.78578 11.5334 5.30032 11.5334C5.81515 11.5334 6.2337 11.9516 6.2337 12.4665C6.2337 12.9816 5.81515 13.3999 5.30032 13.3999ZM5.30032 10.6C4.27095 10.6 3.43384 11.4371 3.43384 12.4665C3.43384 13.4958 4.27095 14.3333 5.30032 14.3333C6.32969 14.3333 7.16709 13.4958 7.16709 12.4665C7.16709 11.4371 6.32969 10.6 5.30032 10.6Z" fill="#1BEA93"/>
</svg>
